<svg width="60" height="60" viewBox="0 0 60 60" fill="none" xmlns="http://www.w3.org/2000/svg">
<g clip-path="url(#clip0_6_1160)">
<path d="M1.48997 30.7001C1.00193 30.2581 0.615907 29.7151 0.358619 29.109C0.10133 28.5029 -0.0210536 27.8482 -2.39247e-05 27.1901C-2.39247e-05 23.4701 -2.39247e-05 19.75 -2.39247e-05 16.03C-0.00599829 15.0618 0.216734 14.1059 0.650001 13.24C2.43 9.70001 4.18996 6.15 5.97996 2.61C6.34316 1.80183 6.94038 1.12117 7.69443 0.655903C8.44849 0.190637 9.32483 -0.0378436 10.2101 1.92379e-05H49.1C49.9738 -0.0179481 50.8346 0.214552 51.5805 0.669941C52.3265 1.12533 52.9267 1.78466 53.31 2.57009C55.11 6.14009 56.89 9.72007 58.68 13.3001C59.088 14.1025 59.3004 14.9899 59.3 15.89C59.3 19.73 59.3 23.5634 59.3 27.39C59.3072 28.3184 59.0125 29.2239 58.4601 29.97C58.2501 30.26 58 30.5201 57.73 30.8301H57.8301C58.307 31.2676 58.6855 31.8013 58.9407 32.396C59.1958 32.9908 59.3217 33.633 59.31 34.28C59.31 36.5 59.31 38.7201 59.31 40.9401C59.3201 41.5652 59.1988 42.1853 58.9542 42.7606C58.7096 43.336 58.3471 43.8536 57.89 44.28L57.76 44.4201L57.91 44.5601C58.344 44.9728 58.6899 45.469 58.9271 46.0189C59.1643 46.5689 59.2877 47.1611 59.29 47.76C59.29 50.08 59.29 52.4 59.29 54.76C59.2743 55.9512 58.7921 57.0886 57.947 57.9281C57.1019 58.7676 55.9612 59.2423 54.77 59.25H4.52C3.32879 59.2423 2.18812 58.7676 1.34299 57.9281C0.497864 57.0886 0.0156594 55.9512 -2.39247e-05 54.76C-2.39247e-05 52.43 -2.39247e-05 50.1 -2.39247e-05 47.76C-0.0103174 47.0097 0.190749 46.2716 0.580054 45.63C0.860054 45.19 1.19 44.79 1.52 44.35L1.37998 44.2001C0.939225 43.79 0.588203 43.293 0.348975 42.7405C0.109747 42.188 -0.0125179 41.592 -0.0100337 40.99C-0.0100337 38.68 -0.0100337 36.3801 -0.0100337 34.0801C-0.0078201 33.4776 0.11811 32.8819 0.359961 32.3301C0.639134 31.7045 1.04826 31.1455 1.56003 30.6901L1.48997 30.7001ZM57.02 15.9501C57.0327 15.3758 56.8985 14.8078 56.63 14.3001L54.2001 9.44008C53.2001 7.52008 52.2801 5.61008 51.3301 3.69008C51.1379 3.2473 50.8139 2.87436 50.4024 2.62209C49.9909 2.36982 49.5118 2.25042 49.03 2.28005H10.28C9.79531 2.25569 9.31471 2.37947 8.90208 2.63491C8.48944 2.89035 8.16439 3.26528 7.97007 3.70998C6.22007 7.23998 4.45004 10.71 2.69004 14.28C2.42435 14.8005 2.28392 15.3757 2.28001 15.96L57.02 15.9501ZM2.28001 18.48V27.28C2.25818 27.8511 2.4516 28.4095 2.822 28.8447C3.1924 29.28 3.71278 29.5603 4.28001 29.63C4.40981 29.64 4.54021 29.64 4.67002 29.63H54.67C54.9846 29.6427 55.2985 29.5901 55.5918 29.4755C55.8851 29.3609 56.1515 29.1868 56.3741 28.9641C56.5968 28.7415 56.7709 28.4751 56.8855 28.1818C57.0001 27.8885 57.0527 27.5747 57.04 27.26C57.04 24.33 57.04 21.39 57.04 18.46V18.24H2.30002L2.28001 18.48ZM4.71006 45.61C4.40125 45.5966 4.09278 45.6451 3.80295 45.7526C3.51313 45.86 3.24776 46.0243 3.02232 46.2357C2.79687 46.4472 2.61597 46.7017 2.49021 46.984C2.36446 47.2664 2.29639 47.571 2.29002 47.88C2.29002 50.1734 2.29002 52.46 2.29002 54.74C2.28866 55.0415 2.34739 55.3403 2.46274 55.6188C2.5781 55.8973 2.74778 56.1501 2.96189 56.3623C3.176 56.5746 3.43027 56.7421 3.70982 56.855C3.98936 56.9679 4.28861 57.024 4.59006 57.02H54.5901C55.0871 57.0448 55.5785 56.9055 55.9886 56.6237C56.3988 56.3418 56.7049 55.9329 56.86 55.46C56.9386 55.1903 56.979 54.9109 56.98 54.63C56.98 52.44 56.98 50.2501 56.98 48.0601C57.004 47.7326 56.957 47.4038 56.8423 47.0962C56.7275 46.7886 56.5477 46.5094 56.315 46.2777C56.0824 46.046 55.8024 45.8673 55.4944 45.7538C55.1863 45.6403 54.8573 45.5947 54.53 45.62H4.67002L4.71006 45.61ZM4.71006 31.9301C4.40125 31.9167 4.09278 31.9651 3.80295 32.0725C3.51313 32.18 3.24776 32.3443 3.02232 32.5558C2.79687 32.7673 2.61597 33.0216 2.49021 33.304C2.36446 33.5863 2.29639 33.8911 2.29002 34.2001C2.29002 36.4901 2.29002 38.7701 2.29002 41.0601C2.28868 41.3594 2.3468 41.656 2.46104 41.9326C2.57527 42.2093 2.7433 42.4605 2.95542 42.6716C3.16754 42.8828 3.41947 43.0498 3.69663 43.1629C3.9738 43.2759 4.27073 43.3327 4.57004 43.3301H54.63C55.1589 43.3562 55.6804 43.1966 56.1041 42.8788C56.5278 42.561 56.827 42.1051 56.9501 41.59C56.9986 41.3768 57.022 41.1587 57.02 40.9401C57.02 38.7401 57.02 36.54 57.02 34.35C57.0404 34.0278 56.9922 33.7049 56.8784 33.4027C56.7646 33.1006 56.5879 32.826 56.3601 32.5972C56.1322 32.3684 55.8584 32.1906 55.5567 32.0756C55.255 31.9606 54.9323 31.911 54.61 31.9301H4.71006Z" fill="white"/>
<path d="M34.2299 6.83992H48.96C49.2623 6.85849 49.5596 6.75628 49.7865 6.55562C50.0134 6.35496 50.1514 6.07232 50.17 5.76998C50.1885 5.46763 50.0862 5.17023 49.8855 4.94332C49.6849 4.7164 49.4022 4.57858 49.0999 4.56001H19.5999C19.4469 4.5451 19.2929 4.5451 19.1399 4.56001C18.8691 4.62323 18.6307 4.78323 18.4696 5.00997C18.3086 5.2367 18.236 5.51455 18.2655 5.79109C18.295 6.06764 18.4245 6.32377 18.6298 6.51143C18.835 6.6991 19.1018 6.80535 19.3799 6.81001H34.2299V6.83992Z" fill="white"/>
<path d="M12.56 6.83997H14.77C15.0723 6.83997 15.3623 6.71989 15.5761 6.5061C15.7899 6.29231 15.91 6.00242 15.91 5.70007C15.91 5.39773 15.7899 5.10771 15.5761 4.89392C15.3623 4.68013 15.0723 4.56006 14.77 4.56006H10.3C9.99764 4.56006 9.70763 4.68013 9.49384 4.89392C9.28004 5.10771 9.15997 5.39773 9.15997 5.70007C9.15997 6.00242 9.28004 6.29231 9.49384 6.5061C9.70763 6.71989 9.99764 6.83997 10.3 6.83997H12.56Z" fill="white"/>
<path d="M6.84004 23.9501C6.83806 23.2712 7.03747 22.6071 7.41316 22.0417C7.78885 21.4764 8.32382 21.0352 8.95039 20.774C9.57697 20.5129 10.2669 20.4435 10.9329 20.5747C11.5989 20.7059 12.2112 21.0318 12.6918 21.5111C13.1725 21.9904 13.5002 22.6016 13.6334 23.2672C13.7665 23.9328 13.6992 24.6229 13.4399 25.2502C13.1806 25.8776 12.7409 26.4139 12.1766 26.7912C11.6123 27.1686 10.9488 27.37 10.27 27.37C9.82001 27.3713 9.37417 27.2838 8.95808 27.1125C8.54199 26.9412 8.1638 26.6895 7.84517 26.3718C7.52653 26.0541 7.27377 25.6767 7.10127 25.2611C6.92878 24.8455 6.84004 24.4 6.84004 23.9501ZM10.26 25.32C10.6044 25.2906 10.9253 25.133 11.1591 24.8784C11.3929 24.6238 11.5227 24.2907 11.5227 23.945C11.5227 23.5994 11.3929 23.2662 11.1591 23.0116C10.9253 22.757 10.6044 22.5994 10.26 22.57C10.0695 22.5538 9.87785 22.5772 9.69697 22.6389C9.5161 22.7006 9.34995 22.7993 9.20918 22.9286C9.06841 23.0578 8.95611 23.2149 8.87923 23.3899C8.80235 23.5648 8.76265 23.7539 8.76265 23.945C8.76265 24.1362 8.80235 24.3251 8.87923 24.5001C8.95611 24.6751 9.06841 24.8321 9.20918 24.9614C9.34995 25.0907 9.5161 25.1894 9.69697 25.2511C9.87785 25.3128 10.0695 25.3363 10.26 25.32Z" fill="white"/>
<path d="M20.54 25.09H23.94C24.2265 25.0974 24.5053 24.9967 24.7208 24.8078C24.9363 24.6189 25.0727 24.3558 25.103 24.0709C25.1333 23.7859 25.0552 23.5 24.8841 23.2701C24.7131 23.0401 24.4617 22.8831 24.18 22.8301C24.1037 22.8203 24.0264 22.8203 23.95 22.8301H17.16C16.9468 22.8291 16.738 22.8913 16.56 23.0087C16.3821 23.1262 16.2429 23.2936 16.16 23.49C16.0619 23.6803 16.0237 23.8959 16.0505 24.1083C16.0773 24.3207 16.1678 24.5201 16.31 24.6801C16.4154 24.8203 16.5533 24.9326 16.7119 25.0075C16.8704 25.0824 17.0449 25.1176 17.2201 25.11L20.54 25.09Z" fill="white"/>
<path d="M44.4799 23.9501V25.0701C44.4799 25.3724 44.6001 25.6623 44.8139 25.8761C45.0277 26.0899 45.3176 26.21 45.6199 26.21C45.9223 26.21 46.2123 26.0899 46.4261 25.8761C46.6399 25.6623 46.7599 25.3724 46.7599 25.0701V22.8301C46.7599 22.5277 46.6399 22.2377 46.4261 22.0239C46.2123 21.8101 45.9223 21.6901 45.6199 21.6901C45.3176 21.6901 45.0277 21.8101 44.8139 22.0239C44.6001 22.2377 44.4799 22.5277 44.4799 22.8301V23.9501Z" fill="white"/>
<path d="M41.06 23.9301V22.8201C41.06 22.5177 40.9399 22.2277 40.7261 22.0139C40.5123 21.8001 40.2223 21.6801 39.92 21.6801C39.6176 21.6801 39.3276 21.8001 39.1138 22.0139C38.9 22.2277 38.78 22.5177 38.78 22.8201C38.78 23.5801 38.78 24.34 38.78 25.1C38.78 25.4023 38.9 25.6923 39.1138 25.9061C39.3276 26.1199 39.6176 26.24 39.92 26.24C40.2242 26.2347 40.5141 26.1103 40.7274 25.8933C40.9406 25.6763 41.06 25.3843 41.06 25.0801V23.9301Z" fill="white"/>
<path d="M33.08 23.97C33.08 24.33 33.08 24.7001 33.08 25.0601C33.0652 25.2181 33.0834 25.3774 33.1337 25.528C33.184 25.6785 33.2652 25.8167 33.372 25.9341C33.4788 26.0514 33.6091 26.1452 33.7542 26.2094C33.8994 26.2735 34.0563 26.3066 34.215 26.3066C34.3737 26.3066 34.5306 26.2735 34.6757 26.2094C34.8209 26.1452 34.9511 26.0514 35.0579 25.9341C35.1648 25.8167 35.2459 25.6785 35.2962 25.528C35.3465 25.3774 35.3648 25.2181 35.3499 25.0601C35.3499 24.3134 35.3499 23.5634 35.3499 22.8101C35.3648 22.6521 35.3465 22.4927 35.2962 22.3422C35.2459 22.1916 35.1648 22.0533 35.0579 21.9359C34.9511 21.8186 34.8209 21.7248 34.6757 21.6606C34.5306 21.5965 34.3737 21.5634 34.215 21.5634C34.0563 21.5634 33.8994 21.5965 33.7542 21.6606C33.6091 21.7248 33.4788 21.8186 33.372 21.9359C33.2652 22.0533 33.184 22.1916 33.1337 22.3422C33.0834 22.4927 33.0652 22.6521 33.08 22.8101C33.07 23.2001 33.08 23.58 33.08 23.97Z" fill="white"/>
<path d="M27.37 23.9501V25.0701C27.3686 25.2228 27.3977 25.3742 27.4555 25.5156C27.5134 25.6569 27.5988 25.7853 27.7068 25.8932C27.8147 26.0012 27.9432 26.0866 28.0846 26.1445C28.2259 26.2023 28.3773 26.2314 28.53 26.23C28.6801 26.2288 28.8285 26.1976 28.9664 26.1384C29.1043 26.0791 29.2291 25.9931 29.3333 25.8851C29.4376 25.7771 29.5193 25.6494 29.5737 25.5094C29.6281 25.3695 29.654 25.2202 29.65 25.0701C29.65 24.3201 29.65 23.5801 29.65 22.8301C29.654 22.6784 29.6275 22.5273 29.5719 22.386C29.5163 22.2448 29.4328 22.1162 29.3264 22.008C29.22 21.8997 29.0929 21.814 28.9526 21.7559C28.8123 21.6979 28.6618 21.6687 28.51 21.6701C28.3577 21.67 28.207 21.7004 28.0667 21.7596C27.9264 21.8187 27.7993 21.9054 27.6931 22.0145C27.5868 22.1235 27.5035 22.2528 27.448 22.3946C27.3925 22.5364 27.366 22.6878 27.37 22.84V23.9501Z" fill="white"/>
<path d="M50.16 23.96V25.0701C50.1599 25.3743 50.2794 25.6663 50.4926 25.8833C50.7059 26.1003 50.9958 26.2247 51.3 26.23C51.4526 26.2314 51.604 26.202 51.7449 26.1433C51.8859 26.0846 52.0135 25.998 52.1201 25.8887C52.2266 25.7793 52.3098 25.6495 52.3648 25.5071C52.4198 25.3647 52.4454 25.2126 52.44 25.0601C52.44 24.3201 52.44 23.5701 52.44 22.8301C52.44 22.5277 52.3198 22.2377 52.106 22.0239C51.8922 21.8101 51.6023 21.6901 51.3 21.6901C50.9976 21.6901 50.7076 21.8101 50.4938 22.0239C50.28 22.2377 50.16 22.5277 50.16 22.8301V23.96Z" fill="white"/>
<path d="M13.69 51.3C13.696 51.9793 13.5001 52.6449 13.1273 53.2126C12.7545 53.7804 12.2214 54.2248 11.5958 54.4893C10.9702 54.7538 10.2802 54.8265 9.61313 54.6984C8.94608 54.5702 8.33206 54.247 7.84896 53.7695C7.36587 53.2921 7.03543 52.6819 6.8995 52.0164C6.76358 51.3509 6.82837 50.66 7.08554 50.0314C7.34271 49.4027 7.78071 48.8645 8.34408 48.4851C8.90745 48.1057 9.57073 47.902 10.25 47.9C11.1554 47.9 12.0244 48.2569 12.6684 48.8934C13.3124 49.5299 13.6795 50.3947 13.69 51.3ZM10.26 52.74C10.6366 52.74 10.9978 52.5904 11.2641 52.3241C11.5304 52.0578 11.68 51.6967 11.68 51.3201C11.68 50.9435 11.5304 50.5822 11.2641 50.3159C10.9978 50.0496 10.6366 49.9 10.26 49.9C10.0744 49.8987 9.89051 49.9343 9.71884 50.0046C9.54717 50.075 9.39117 50.1789 9.25998 50.3101C9.12878 50.4413 9.02507 50.5973 8.95468 50.7689C8.88429 50.9406 8.84861 51.1245 8.84994 51.3101C8.84729 51.4969 8.88183 51.6823 8.9515 51.8557C9.02118 52.0291 9.12463 52.1869 9.25583 52.3199C9.38702 52.453 9.5434 52.5588 9.71579 52.6309C9.88817 52.703 10.0731 52.74 10.26 52.74Z" fill="white"/>
<path d="M20.5399 52.4599H23.94C24.2254 52.4645 24.5022 52.3618 24.7156 52.1721C24.929 51.9824 25.0633 51.7195 25.0922 51.4355C25.1211 51.1515 25.0424 50.8669 24.8716 50.6381C24.7008 50.4094 24.4505 50.2531 24.17 50.2C24.097 50.1902 24.023 50.1902 23.95 50.2H17.1599C16.8969 50.1933 16.6398 50.2785 16.4329 50.441C16.226 50.6036 16.0823 50.8333 16.0266 51.0904C15.9709 51.3476 16.0067 51.6161 16.1278 51.8497C16.2489 52.0833 16.4477 52.2673 16.69 52.37C16.8581 52.4386 17.0384 52.4726 17.22 52.4699L20.5399 52.4599Z" fill="white"/>
<path d="M52.46 51.3201C52.46 50.9401 52.46 50.5601 52.46 50.1801C52.46 49.8777 52.3398 49.5877 52.126 49.3739C51.9122 49.1601 51.6224 49.04 51.32 49.04C51.0177 49.04 50.7276 49.1601 50.5139 49.3739C50.3001 49.5877 50.18 49.8777 50.18 50.1801V52.48C50.18 52.7823 50.3001 53.0723 50.5139 53.2861C50.7276 53.4999 51.0177 53.62 51.32 53.62C51.6224 53.62 51.9122 53.4999 52.126 53.2861C52.3398 53.0723 52.46 52.7823 52.46 52.48C52.47 52.08 52.46 51.7001 52.46 51.3201Z" fill="white"/>
<path d="M44.48 51.3201C44.48 51.7001 44.48 52.08 44.48 52.46C44.48 52.7623 44.6002 53.0523 44.814 53.2661C45.0277 53.4799 45.3176 53.6 45.62 53.6C45.9223 53.6 46.2123 53.4799 46.4261 53.2661C46.6399 53.0523 46.76 52.7623 46.76 52.46V50.21C46.76 49.9076 46.6399 49.6177 46.4261 49.4039C46.2123 49.1901 45.9223 49.0701 45.62 49.0701C45.3176 49.0701 45.0277 49.1901 44.814 49.4039C44.6002 49.6177 44.48 49.9076 44.48 50.21C44.47 50.52 44.48 50.9401 44.48 51.3201Z" fill="white"/>
<path d="M41.06 51.3201V50.1801C41.06 49.8777 40.9399 49.5877 40.7261 49.3739C40.5123 49.1601 40.2223 49.04 39.92 49.04C39.6176 49.04 39.3276 49.1601 39.1138 49.3739C38.9 49.5877 38.78 49.8777 38.78 50.1801C38.78 50.9401 38.78 51.71 38.78 52.48C38.7826 52.7789 38.9025 53.0648 39.1138 53.2761C39.3252 53.4875 39.6111 53.6074 39.91 53.61C40.2132 53.61 40.5043 53.4902 40.7197 53.2767C40.935 53.0632 41.0574 52.7732 41.06 52.47V51.3201Z" fill="white"/>
<path d="M35.3599 51.3201C35.3599 50.9401 35.3599 50.5601 35.3599 50.1801C35.3748 50.0221 35.3565 49.8627 35.3062 49.7122C35.2559 49.5616 35.1748 49.4233 35.0679 49.3059C34.9611 49.1886 34.8309 49.0948 34.6857 49.0306C34.5406 48.9665 34.3836 48.9333 34.2249 48.9333C34.0662 48.9333 33.9094 48.9665 33.7642 49.0306C33.6191 49.0948 33.4889 49.1886 33.382 49.3059C33.2752 49.4233 33.194 49.5616 33.1437 49.7122C33.0935 49.8627 33.0752 50.0221 33.09 50.1801C33.09 50.9401 33.09 51.71 33.09 52.48C33.0752 52.638 33.0935 52.7974 33.1437 52.9479C33.194 53.0984 33.2752 53.2368 33.382 53.3541C33.4889 53.4715 33.6191 53.5652 33.7642 53.6294C33.9094 53.6935 34.0662 53.7267 34.2249 53.7267C34.3836 53.7267 34.5406 53.6935 34.6857 53.6294C34.8309 53.5652 34.9611 53.4715 35.0679 53.3541C35.1748 53.2368 35.2559 53.0984 35.3062 52.9479C35.3565 52.7974 35.3748 52.638 35.3599 52.48C35.3599 52.08 35.3599 51.7001 35.3599 51.3201Z" fill="white"/>
<path d="M27.3699 51.3201V52.46C27.3726 52.7632 27.4949 53.0532 27.7103 53.2667C27.9256 53.4802 28.2167 53.6 28.52 53.6C28.6705 53.5987 28.8194 53.5677 28.9578 53.5085C29.0963 53.4494 29.2217 53.3633 29.3267 53.2555C29.4318 53.1476 29.5144 53.0201 29.5699 52.8801C29.6254 52.7402 29.6526 52.5906 29.65 52.4401C29.65 51.6934 29.65 50.9434 29.65 50.1901C29.65 49.8877 29.5299 49.5977 29.3161 49.3839C29.1023 49.1701 28.8123 49.05 28.5099 49.05C28.2076 49.05 27.9177 49.1701 27.7039 49.3839C27.4901 49.5977 27.3699 49.8877 27.3699 50.1901V51.3201Z" fill="white"/>
<path d="M6.84004 37.63C6.83806 36.9512 7.03747 36.2871 7.41316 35.7217C7.78885 35.1563 8.32382 34.7151 8.95039 34.454C9.57697 34.1928 10.2669 34.1236 10.9329 34.2548C11.5989 34.386 12.2112 34.7119 12.6918 35.1912C13.1725 35.6705 13.5002 36.2815 13.6334 36.9472C13.7665 37.6128 13.6992 38.303 13.4399 38.9303C13.1806 39.5576 12.7409 40.094 12.1766 40.4713C11.6123 40.8487 10.9488 41.0501 10.27 41.0501C9.36201 41.0501 8.49106 40.6901 7.8481 40.049C7.20513 39.4079 6.84269 38.538 6.84004 37.63ZM10.27 39C10.5405 38.998 10.8044 38.916 11.0284 38.7643C11.2524 38.6126 11.4264 38.398 11.5285 38.1475C11.6307 37.897 11.6565 37.6218 11.6025 37.3567C11.5485 37.0916 11.4172 36.8484 11.2252 36.6578C11.0332 36.4672 10.7891 36.3377 10.5236 36.2857C10.2582 36.2336 9.98323 36.2613 9.73347 36.3652C9.48372 36.4692 9.27029 36.6449 9.12019 36.87C8.97009 37.0951 8.88998 37.3595 8.88997 37.63C8.88996 37.8108 8.92572 37.9898 8.99519 38.1566C9.06467 38.3235 9.16648 38.475 9.29475 38.6023C9.42303 38.7297 9.57526 38.8303 9.74263 38.8986C9.91 38.9668 10.0892 39.0013 10.27 39Z" fill="white"/>
<path d="M20.54 38.77H23.94C24.2181 38.7653 24.4849 38.6592 24.6901 38.4715C24.8954 38.2839 25.0249 38.0276 25.0544 37.7511C25.0839 37.4745 25.0113 37.1967 24.8503 36.9699C24.6892 36.7432 24.4508 36.5832 24.18 36.52C24.1036 36.5103 24.0264 36.5103 23.95 36.52H17.16C16.9447 36.5207 16.734 36.5824 16.5523 36.6978C16.3706 36.8133 16.2254 36.9779 16.1334 37.1725C16.0413 37.367 16.0062 37.5838 16.0322 37.7975C16.0581 38.0112 16.144 38.2131 16.28 38.38C16.3876 38.5171 16.5262 38.6267 16.6844 38.6997C16.8426 38.7727 17.0159 38.8071 17.19 38.8L20.54 38.77Z" fill="white"/>
<path d="M50.16 37.63V38.76C50.16 39.0624 50.28 39.3524 50.4938 39.5662C50.7076 39.78 50.9976 39.9 51.3 39.9C51.6023 39.9 51.8922 39.78 52.106 39.5662C52.3198 39.3524 52.44 39.0624 52.44 38.76C52.44 38.0133 52.44 37.2633 52.44 36.51C52.44 36.2077 52.3198 35.9176 52.106 35.7039C51.8922 35.4901 51.6023 35.37 51.3 35.37C50.9976 35.37 50.7076 35.4901 50.4938 35.7039C50.28 35.9176 50.16 36.2077 50.16 36.51V37.63Z" fill="white"/>
<path d="M44.48 37.63V38.75C44.48 39.0523 44.6002 39.3424 44.814 39.5562C45.0277 39.7699 45.3176 39.89 45.62 39.89C45.9223 39.89 46.2123 39.7699 46.4261 39.5562C46.6399 39.3424 46.76 39.0523 46.76 38.75V36.52C46.76 36.2177 46.6399 35.9277 46.4261 35.7139C46.2123 35.5001 45.9223 35.38 45.62 35.38C45.3176 35.38 45.0277 35.5001 44.814 35.7139C44.6002 35.9277 44.48 36.2177 44.48 36.52C44.47 36.87 44.48 37.25 44.48 37.63Z" fill="white"/>
<path d="M38.78 37.63C38.78 38.01 38.78 38.38 38.78 38.75C38.78 39.0523 38.9001 39.3424 39.1139 39.5562C39.3277 39.7699 39.6177 39.89 39.92 39.89C40.2224 39.89 40.5124 39.7699 40.7262 39.5562C40.94 39.3424 41.06 39.0523 41.06 38.75V36.52C41.06 36.2177 40.94 35.9277 40.7262 35.7139C40.5124 35.5001 40.2224 35.38 39.92 35.38C39.6177 35.38 39.3277 35.5001 39.1139 35.7139C38.9001 35.9277 38.78 36.2177 38.78 36.52C38.77 36.87 38.78 37.25 38.78 37.63Z" fill="white"/>
<path d="M35.3599 37.63C35.3599 37.25 35.3599 36.87 35.3599 36.49C35.3748 36.332 35.3565 36.1726 35.3062 36.0221C35.2559 35.8716 35.1748 35.7332 35.0679 35.6158C34.9611 35.4985 34.8309 35.4048 34.6857 35.3407C34.5406 35.2765 34.3836 35.2434 34.2249 35.2434C34.0662 35.2434 33.9094 35.2765 33.7642 35.3407C33.6191 35.4048 33.4889 35.4985 33.382 35.6158C33.2752 35.7332 33.194 35.8716 33.1437 36.0221C33.0935 36.1726 33.0752 36.332 33.09 36.49C33.09 37.26 33.09 38.03 33.09 38.79C33.1166 39.0727 33.2475 39.3353 33.4575 39.5264C33.6674 39.7175 33.941 39.8234 34.2249 39.8234C34.5088 39.8234 34.7826 39.7175 34.9925 39.5264C35.2024 39.3353 35.3334 39.0727 35.3599 38.79C35.3599 38.39 35.3599 38.01 35.3599 37.63Z" fill="white"/>
<path d="M29.6499 37.61C29.6499 37.24 29.6499 36.86 29.6499 36.49C29.6648 36.332 29.6465 36.1726 29.5962 36.0221C29.5459 35.8716 29.4648 35.7332 29.358 35.6158C29.2511 35.4985 29.1209 35.4048 28.9758 35.3407C28.8306 35.2765 28.6736 35.2434 28.5149 35.2434C28.3562 35.2434 28.1993 35.2765 28.0541 35.3407C27.909 35.4048 27.7789 35.4985 27.672 35.6158C27.5652 35.7332 27.484 35.8716 27.4338 36.0221C27.3835 36.1726 27.3651 36.332 27.3799 36.49C27.3799 37.26 27.3799 38.03 27.3799 38.79C27.4065 39.0727 27.5376 39.3353 27.7475 39.5264C27.9574 39.7175 28.2311 39.8234 28.5149 39.8234C28.7988 39.8234 29.0725 39.7175 29.2824 39.5264C29.4923 39.3353 29.6234 39.0727 29.6499 38.79C29.6599 38.38 29.6499 38 29.6499 37.61Z" fill="white"/>
</g>
<defs>
<clipPath id="clip0_6_1160">
<rect width="59.31" height="59.3" fill="white"/>
</clipPath>
</defs>
</svg>
