<svg width="1920" height="257" viewBox="0 0 1920 257" fill="none" xmlns="http://www.w3.org/2000/svg">
<path opacity="0.4" d="M1590.94 196.43C1464.56 232.5 1333.94 269.8 1218.8 219.31C1171.63 198.63 1130.69 164.03 1091.1 130.56C1043.85 90.6301 995 49.3299 934.88 30.8999C830.88 -0.960098 726.81 42.2799 626.12 84.0999C581.53 102.63 535.42 121.78 489.89 134.19C318.37 180.95 127.4 122.17 0 0V16.73C130.4 136.34 321.32 192.95 493.13 146.07C539.42 133.45 585.9 114.15 630.85 95.48C734.07 52.61 831.56 12.1199 931.27 42.6799C988.97 60.3699 1036.85 100.83 1083.14 139.97C1123.41 173.97 1165.05 209.19 1213.85 230.6C1333.02 282.84 1465.85 244.93 1594.32 208.28C1709.38 175.44 1819.05 144.14 1920 171.12V158.58C1815.59 132.33 1701.69 164.82 1590.94 196.43Z" fill="url(#paint0_linear_6_1216)"/>
<defs>
<linearGradient id="paint0_linear_6_1216" x1="0" y1="128.12" x2="1920" y2="128.12" gradientUnits="userSpaceOnUse">
<stop stop-color="#ACACAC"/>
<stop offset="1" stop-color="#2B2B2B"/>
</linearGradient>
</defs>
</svg>
